<?xml version="1.0" standalone="no"?>
<!DOCTYPE svg PUBLIC "-//W3C//DTD SVG 20010904//EN"
 "http://www.w3.org/TR/2001/REC-SVG-20010904/DTD/svg10.dtd">
<svg version="1.0" xmlns="http://www.w3.org/2000/svg"
 width="512.000000pt" height="512.000000pt" viewBox="0 0 512.000000 512.000000"
 preserveAspectRatio="xMidYMid meet">

<g transform="translate(0.000000,512.000000) scale(0.100000,-0.100000)"
fill="#000000" stroke="none">
<path d="M1140 4464 c-177 -38 -348 -171 -429 -334 -71 -144 -72 -164 -69
-749 l3 -516 31 -85 c16 -47 47 -112 68 -143 55 -82 163 -178 248 -220 142
-70 55 -67 1568 -67 1190 0 1373 2 1430 16 208 49 383 209 457 421 l28 78 3
516 c3 585 2 605 -69 749 -82 165 -252 297 -434 335 -102 21 -2736 21 -2835
-1z"/>
<path d="M782 1909 c-49 -14 -118 -88 -132 -141 -26 -95 14 -196 98 -245 l47
-28 1765 0 1765 0 47 28 c84 49 124 149 97 244 -16 59 -78 124 -135 141 -52
15 -3499 16 -3552 1z"/>
<path d="M802 1060 c-84 -20 -162 -116 -162 -199 0 -94 64 -184 146 -209 60
-18 3488 -18 3548 0 57 17 119 82 135 141 27 95 -13 195 -97 244 l-47 28
-1745 2 c-960 0 -1760 -2 -1778 -7z"/>
</g>
</svg>
